{"title":"The Way Back-720p MP4 AAC x264 BRRip 2010-CC","uid":8073296,"size":3589235199,"categoryP":"video","categoryS":"hd___movies","magnet":"?xt=urn:btih:262c12e2084a291f7841dd45690b2f967f4a0de2&amp;dn=The+Way+Back-720p+MP4+AAC+x264+BRRip+2010-CC&amp;tr=udp%3A%2F%2Ftracker.openbittorrent.com%3A80&amp;tr=udp%3A%2F%2Fopen.demonii.com%3A1337&amp;tr=udp%3A%2F%2Ftracker.coppersurfer.tk%3A6969&amp;tr=udp%3A%2F%2Fexodus.desync.com%3A6969","seeders":2,"leechers":0,"uploader":"Caveman44","files":-1,"time":1359322692,"description":" &lt;a href=&quot;http://www.imdb.com/title/tt1023114/&quot; rel=&quot;nofollow&quot; target=&quot;_NEW&quot;&gt;http://www.imdb.com/title/tt1023114/&lt;/a&gt;\n\nSource: The.Way.Back.720p.Bluray.x264.CBGB Thanks!\n\nSubs: Albanian, Arabic, Argentinian, Brazilian, Chinese, Danish, Dutch, English, Farsi-Persian, French, Greek, Hebrew, Hungarian, Indonesian, Italian, Japanese, Norwegian, Polish, Portuguese, Romanian, Slovenian, Spanish, Swedish, Turkish and Vietnamese.\n\nSubs: English hardcoded when needed.\n\nSample and Screens included.\n\nGeneral\nComplete name                            : The Way Back-720p MP4 AAC x264 BRRip 2010-CC.mp4\nFormat                                   : MPEG-4\nFormat profile                           : Base Media\nCodec ID                                 : isom\nFile size                                : 3.30 GiB\nDuration                                 : 2h 13mn\nOverall bit rate mode                    : Variable\nOverall bit rate                         : 3 551 Kbps\nEncoded date                             : UTC 2013-01-03 07:05:54\n\nVideo\nID                                       : 1\nFormat                                   : AVC\nFormat/Info                              : Advanced Video Codec\nFormat profile                           : &lt;a class=&quot;__cf_email__&quot; href=&quot;/cdn-cgi/l/email-protection&quot; data-cfemail=&quot;f4bc9d939cb4b8c0dac5&quot;&gt;[email&amp;#160;protected]&lt;/a&gt;&lt;script cf-hash='f9e31' type=&quot;text/javascript&quot;&gt;\n/* &lt;![CDATA[ */!function(){try{var t=&quot;currentScript&quot;in document?document.currentScript:function(){for(var t=document.getElementsByTagName(&quot;script&quot;),e=t.length;e--;)if(t[e].getAttribute(&quot;cf-hash&quot;))return t[e]}();if(t&amp;&amp;t.previousSibling){var e,r,n,i,c=t.previousSibling,a=c.getAttribute(&quot;data-cfemail&quot;);if(a){for(e=&quot;&quot;,r=parseInt(a.substr(0,2),16),n=2;a.length-n;n+=2)i=parseInt(a.substr(n,2),16)^r,e+=String.fromCharCode(i);e=document.createTextNode(e),c.parentNode.replaceChild(e,c)}}}catch(u){}}();/* ]]&gt; */&lt;/script&gt;\nFormat settings, CABAC                   : Yes\nFormat settings, ReFrames                : 5 frames\nCodec ID                                 : avc1\nCodec ID/Info                            : Advanced Video Coding\nDuration                                 : 2h 13mn\nBit rate                                 : 3 264 Kbps\nMaximum bit rate                         : 18.3 Mbps\nWidth                                    : 1 280 pixels\nHeight                                   : 544 pixels\nDisplay aspect ratio                     : 2.35:1\nFrame rate mode                          : Variable\nFrame rate                               : 23.976 fps\nMinimum frame rate                       : 19.048 fps\nMaximum frame rate                       : 24.390 fps\nColor space                              : YUV\nChroma subsampling                       : 4:2:0\nBit depth                                : 8 bits\nScan type                                : Progressive\nBits/(Pixel*Frame)                       : 0.196\nStream size                              : 2.94 GiB (89%)\nWriting library                          : x264 core 112\n\nAudio\nID                                       : 2\nFormat                                   : AAC\nFormat/Info                              : Advanced Audio Codec\nFormat profile                           : LC\nCodec ID                                 : 40\nDuration                                 : 2h 13mn\nBit rate mode                            : Variable\nBit rate                                 : 384 Kbps\nMaximum bit rate                         : 714 Kbps\nChannel(s)                               : 6 channels\nChannel positions                        : Front: L C R, Side: L R, LFE\nSampling rate                            : 48.0 KHz\nCompression mode                         : Lossy\nDelay relative to video                  : 83ms\nStream size                              : 366 MiB (11%)\nLanguage                                 : English\n\nEnjoy...\n\nRequested by Clair.\n\nComing soon: Apocalypse Hitler, Frequency, From Paris with Love, Ransom and more..","torrent":{"xt":"urn:btih:262c12e2084a291f7841dd45690b2f967f4a0de2","amp;dn":"The+Way+Back-720p+MP4+AAC+x264+BRRip+2010-CC","amp;tr":["udp%3A%2F%2Ftracker.openbittorrent.com%3A80","udp%3A%2F%2Fopen.demonii.com%3A1337","udp%3A%2F%2Ftracker.coppersurfer.tk%3A6969","udp%3A%2F%2Fexodus.desync.com%3A6969"],"infoHash":"262c12e2084a291f7841dd45690b2f967f4a0de2","infoHashBuffer":{"type":"Buffer","data":[38,44,18,226,8,74,41,31,120,65,221,69,105,11,47,150,127,74,13,226]},"announce":[],"urlList":[]}}